<svg width="149" height="35" viewBox="0 0 149 35" fill="none" xmlns="http://www.w3.org/2000/svg">
<path d="M17.5 35C27.165 35 35 27.165 35 17.5C35 7.83502 27.165 0 17.5 0C7.83502 0 0 7.83502 0 17.5C0 27.165 7.83502 35 17.5 35Z" fill="#EE4A62"/>
<path d="M19.5893 27.0381L8.23319 15.682L10.7222 13.1929L22.0783 24.5491L19.5893 27.0381ZM21.7672 24.8602L19.6516 22.7445L24.614 17.7821L26.7297 19.8977L21.7672 24.8602ZM17.0536 20.1466L14.938 18.031L19.5427 13.4263L21.6583 15.5419L17.0536 20.1466ZM12.5267 15.6197L10.4111 13.5041L15.2647 8.65048L17.3803 10.7661L12.5267 15.6197Z" fill="white"/>
<path d="M49.176 26.432C48.248 26.432 47.4 26.264 46.632 25.928C45.88 25.592 45.224 25.128 44.664 24.536C44.104 23.928 43.672 23.216 43.368 22.4C43.08 21.584 42.936 20.704 42.936 19.76V19.208C42.936 18.264 43.072 17.384 43.344 16.568C43.632 15.752 44.04 15.04 44.568 14.432C45.112 13.808 45.76 13.328 46.512 12.992C47.264 12.64 48.104 12.464 49.032 12.464C50.088 12.464 51 12.696 51.768 13.16C52.536 13.608 53.136 14.28 53.568 15.176C54 16.056 54.24 17.144 54.288 18.44L53.28 17.504V8.48H57.144V26H54.096V20.552H54.624C54.576 21.8 54.312 22.864 53.832 23.744C53.368 24.624 52.736 25.296 51.936 25.76C51.136 26.208 50.216 26.432 49.176 26.432ZM50.136 23.216C50.728 23.216 51.264 23.088 51.744 22.832C52.24 22.56 52.632 22.168 52.92 21.656C53.224 21.144 53.376 20.528 53.376 19.808V18.92C53.376 18.216 53.224 17.624 52.92 17.144C52.616 16.664 52.216 16.296 51.72 16.04C51.224 15.784 50.688 15.656 50.112 15.656C49.472 15.656 48.896 15.824 48.384 16.16C47.888 16.48 47.496 16.928 47.208 17.504C46.92 18.064 46.776 18.72 46.776 19.472C46.776 20.24 46.92 20.904 47.208 21.464C47.496 22.024 47.896 22.456 48.408 22.76C48.92 23.064 49.496 23.216 50.136 23.216ZM65.067 26.408C63.547 26.408 62.379 25.92 61.563 24.944C60.747 23.952 60.339 22.464 60.339 20.48V12.848H64.179V20.672C64.179 21.376 64.379 21.936 64.779 22.352C65.179 22.768 65.715 22.976 66.387 22.976C67.075 22.976 67.635 22.76 68.067 22.328C68.499 21.896 68.715 21.312 68.715 20.576V12.848H72.555V26H69.507V20.456H69.771C69.771 21.784 69.595 22.896 69.243 23.792C68.907 24.672 68.403 25.328 67.731 25.76C67.059 26.192 66.227 26.408 65.235 26.408H65.067ZM81.0878 26.408C79.2158 26.408 77.7518 26.024 76.6958 25.256C75.6398 24.488 75.0798 23.408 75.0158 22.016H78.4238C78.4878 22.432 78.7358 22.808 79.1678 23.144C79.6158 23.464 80.2798 23.624 81.1598 23.624C81.8318 23.624 82.3838 23.512 82.8158 23.288C83.2638 23.048 83.4878 22.712 83.4878 22.28C83.4878 21.896 83.3198 21.592 82.9838 21.368C82.6478 21.128 82.0478 20.96 81.1838 20.864L80.1518 20.768C78.5678 20.608 77.3758 20.168 76.5758 19.448C75.7918 18.728 75.3998 17.808 75.3998 16.688C75.3998 15.76 75.6318 14.984 76.0958 14.36C76.5598 13.736 77.1998 13.264 78.0158 12.944C78.8478 12.624 79.7918 12.464 80.8478 12.464C82.5438 12.464 83.9118 12.84 84.9518 13.592C85.9918 14.328 86.5358 15.4 86.5838 16.808H83.1758C83.1118 16.376 82.8878 16.016 82.5038 15.728C82.1198 15.424 81.5518 15.272 80.7998 15.272C80.2078 15.272 79.7358 15.384 79.3838 15.608C79.0318 15.832 78.8558 16.136 78.8558 16.52C78.8558 16.888 79.0078 17.168 79.3118 17.36C79.6158 17.552 80.1118 17.688 80.7998 17.768L81.8318 17.864C83.4478 18.04 84.7038 18.488 85.5998 19.208C86.4958 19.928 86.9438 20.896 86.9438 22.112C86.9438 22.992 86.7038 23.76 86.2238 24.416C85.7438 25.056 85.0638 25.552 84.1838 25.904C83.3038 26.24 82.2718 26.408 81.0878 26.408ZM89.4317 30.8V12.848H92.4797V18.536L92.0717 18.512C92.1357 17.2 92.4077 16.096 92.8877 15.2C93.3677 14.288 94.0157 13.608 94.8317 13.16C95.6477 12.696 96.5677 12.464 97.5917 12.464C98.5037 12.464 99.3277 12.632 100.064 12.968C100.816 13.304 101.456 13.776 101.984 14.384C102.528 14.976 102.936 15.68 103.208 16.496C103.496 17.296 103.64 18.176 103.64 19.136V19.688C103.64 20.632 103.504 21.52 103.232 22.352C102.96 23.168 102.56 23.88 102.032 24.488C101.52 25.096 100.888 25.576 100.136 25.928C99.3997 26.264 98.5517 26.432 97.5917 26.432C96.5997 26.432 95.7037 26.232 94.9037 25.832C94.1197 25.416 93.4877 24.792 93.0077 23.96C92.5277 23.112 92.2637 22.04 92.2157 20.744L93.2717 22.184V30.8H89.4317ZM96.5117 23.216C97.1677 23.216 97.7357 23.056 98.2157 22.736C98.7117 22.416 99.0957 21.968 99.3677 21.392C99.6397 20.816 99.7757 20.152 99.7757 19.4C99.7757 18.648 99.6397 17.992 99.3677 17.432C99.0957 16.872 98.7197 16.44 98.2397 16.136C97.7597 15.816 97.1837 15.656 96.5117 15.656C95.9357 15.656 95.3917 15.792 94.8797 16.064C94.3677 16.336 93.9517 16.728 93.6317 17.24C93.3277 17.736 93.1757 18.344 93.1757 19.064V19.952C93.1757 20.64 93.3357 21.232 93.6557 21.728C93.9917 22.208 94.4157 22.576 94.9277 22.832C95.4397 23.088 95.9677 23.216 96.5117 23.216ZM114.251 26V22.112H113.603V17.888C113.603 17.216 113.443 16.712 113.123 16.376C112.803 16.04 112.291 15.872 111.587 15.872C111.235 15.872 110.771 15.88 110.195 15.896C109.619 15.912 109.027 15.936 108.419 15.968C107.811 16 107.259 16.032 106.763 16.064V12.824C107.131 12.792 107.563 12.76 108.059 12.728C108.555 12.696 109.067 12.672 109.595 12.656C110.123 12.64 110.619 12.632 111.083 12.632C112.427 12.632 113.555 12.824 114.467 13.208C115.395 13.592 116.099 14.176 116.579 14.96C117.059 15.728 117.299 16.72 117.299 17.936V26H114.251ZM110.051 26.336C109.107 26.336 108.275 26.168 107.555 25.832C106.851 25.496 106.299 25.016 105.899 24.392C105.499 23.752 105.299 22.992 105.299 22.112C105.299 21.152 105.547 20.368 106.043 19.76C106.539 19.136 107.235 18.68 108.131 18.392C109.027 18.088 110.059 17.936 111.227 17.936H114.035V20.072H111.203C110.531 20.072 110.011 20.24 109.643 20.576C109.291 20.896 109.115 21.336 109.115 21.896C109.115 22.424 109.291 22.856 109.643 23.192C110.011 23.512 110.531 23.672 111.203 23.672C111.635 23.672 112.019 23.6 112.355 23.456C112.707 23.296 112.995 23.032 113.219 22.664C113.443 22.296 113.571 21.784 113.603 21.128L114.515 22.088C114.435 23 114.211 23.768 113.843 24.392C113.491 25.016 112.995 25.496 112.355 25.832C111.731 26.168 110.963 26.336 110.051 26.336ZM126.461 26.456C125.325 26.456 124.333 26.272 123.485 25.904C122.653 25.52 121.957 25.008 121.397 24.368C120.837 23.728 120.421 23.008 120.149 22.208C119.877 21.392 119.741 20.552 119.741 19.688V19.232C119.741 18.336 119.885 17.48 120.173 16.664C120.461 15.832 120.885 15.096 121.445 14.456C122.005 13.816 122.701 13.312 123.533 12.944C124.381 12.576 125.349 12.392 126.437 12.392C127.621 12.392 128.669 12.624 129.581 13.088C130.493 13.536 131.221 14.168 131.765 14.984C132.309 15.8 132.613 16.736 132.677 17.792H128.909C128.845 17.2 128.605 16.704 128.189 16.304C127.789 15.888 127.205 15.68 126.437 15.68C125.797 15.68 125.261 15.84 124.829 16.16C124.413 16.48 124.101 16.92 123.893 17.48C123.685 18.04 123.581 18.704 123.581 19.472C123.581 20.176 123.677 20.816 123.869 21.392C124.061 21.952 124.365 22.392 124.781 22.712C125.213 23.016 125.773 23.168 126.461 23.168C126.973 23.168 127.405 23.08 127.757 22.904C128.125 22.712 128.413 22.456 128.621 22.136C128.845 21.8 128.981 21.416 129.029 20.984H132.773C132.725 22.072 132.421 23.032 131.861 23.864C131.301 24.68 130.557 25.32 129.629 25.784C128.701 26.232 127.645 26.456 126.461 26.456ZM141.253 26.456C140.133 26.456 139.141 26.264 138.277 25.88C137.429 25.496 136.717 24.984 136.141 24.344C135.581 23.688 135.149 22.96 134.845 22.16C134.557 21.344 134.413 20.512 134.413 19.664V19.184C134.413 18.304 134.557 17.464 134.845 16.664C135.149 15.848 135.581 15.12 136.141 14.48C136.701 13.84 137.397 13.336 138.229 12.968C139.077 12.584 140.037 12.392 141.109 12.392C142.517 12.392 143.701 12.712 144.661 13.352C145.637 13.976 146.381 14.8 146.893 15.824C147.405 16.832 147.661 17.936 147.661 19.136V20.432H136.021V18.248H145.333L144.085 19.256C144.085 18.472 143.973 17.8 143.749 17.24C143.525 16.68 143.189 16.256 142.741 15.968C142.309 15.664 141.765 15.512 141.109 15.512C140.437 15.512 139.869 15.664 139.405 15.968C138.941 16.272 138.589 16.72 138.349 17.312C138.109 17.888 137.989 18.6 137.989 19.448C137.989 20.232 138.101 20.92 138.325 21.512C138.549 22.088 138.901 22.536 139.381 22.856C139.861 23.176 140.485 23.336 141.253 23.336C141.957 23.336 142.533 23.2 142.981 22.928C143.429 22.656 143.733 22.32 143.893 21.92H147.421C147.229 22.8 146.853 23.584 146.293 24.272C145.733 24.96 145.029 25.496 144.181 25.88C143.333 26.264 142.357 26.456 141.253 26.456Z" fill="white"/>
</svg>
