<svg width="35" height="35" viewBox="0 0 35 35" fill="none" xmlns="http://www.w3.org/2000/svg">
<path d="M17.5 35C27.165 35 35 27.165 35 17.5C35 7.83502 27.165 0 17.5 0C7.83502 0 0 7.83502 0 17.5C0 27.165 7.83502 35 17.5 35Z" fill="#005BFF"/>
<path d="M19.5893 27.0381L8.23319 15.682L10.7222 13.1929L22.0783 24.5491L19.5893 27.0381ZM21.7672 24.8602L19.6516 22.7445L24.614 17.7821L26.7297 19.8977L21.7672 24.8602ZM17.0536 20.1466L14.938 18.031L19.5427 13.4263L21.6583 15.5419L17.0536 20.1466ZM12.5267 15.6197L10.4111 13.5041L15.2647 8.65048L17.3803 10.7661L12.5267 15.6197Z" fill="white"/>
</svg>
